<svg xmlns="http://www.w3.org/2000/svg" viewBox="2 5 20 14">
  <path d="M 20 5 H 4 C 2.9 5 2.01 5.9 2.01 7 L 2 17 C 2 18.1 2.9 19 4 19 H 20 C 21.1 19 22 18.1 22 17 V 7 C 22 5.9 21.1 5 20 5 Z M 11 8 H 13 V 10 H 11 V 8 Z M 11 11 H 13 V 13 H 11 V 11 Z M 8 8 H 10 V 10 H 8 V 8 Z M 8 11 H 10 V 13 H 8 V 11 Z M 7 13 H 5 V 11 H 7 V 13 Z M 7 10 H 5 V 8 H 7 V 10 Z M 16 17 H 8 V 15 H 16 V 17 Z M 16 13 H 14 V 11 H 16 V 13 Z M 16 10 H 14 V 8 H 16 V 10 Z M 19 13 H 17 V 11 H 19 V 13 Z M 19 10 H 17 V 8 H 19 V 10 Z" fill="#ffffff"/>
</svg>